<?xml version="1.0" encoding="UTF-8" standalone="no" ?>
<!DOCTYPE svg PUBLIC "-//W3C//DTD SVG 1.1//EN" "http://www.w3.org/Graphics/SVG/1.1/DTD/svg11.dtd">
<svg xmlns="http://www.w3.org/2000/svg" xmlns:xlink="http://www.w3.org/1999/xlink" version="1.1" width="1080" height="1080" viewBox="0 0 1080 1080" xml:space="preserve">
<desc>Created with Fabric.js 5.2.4</desc>
<defs>
</defs>
<g transform="matrix(1 0 0 1 540 540)" id="8532b87f-cb93-477d-9e35-155c90bd289a"  >
<rect style="stroke: none; stroke-width: 1; stroke-dasharray: none; stroke-linecap: butt; stroke-dashoffset: 0; stroke-linejoin: miter; stroke-miterlimit: 4; fill: rgb(255,255,255); fill-rule: nonzero; opacity: 1; visibility: hidden;" vector-effect="non-scaling-stroke"  x="-540" y="-540" rx="0" ry="0" width="1080" height="1080" />
</g>
<g transform="matrix(1 0 0 1 540 540)" id="f7215b74-e884-483c-a679-cb0618288303"  >
</g>
<g transform="matrix(0.71 -0.71 0.71 0.71 513.59 474.72)"  >
<rect style="stroke: none; stroke-width: 0; stroke-dasharray: none; stroke-linecap: butt; stroke-dashoffset: 0; stroke-linejoin: miter; stroke-miterlimit: 4; fill: rgb(63,63,63); fill-rule: nonzero; opacity: 1;" vector-effect="non-scaling-stroke"  x="-20.13" y="-92.19" rx="0" ry="0" width="40.26" height="184.38" />
</g>
<g transform="matrix(1 0 0 1 602 471.82)"  >
<path style="stroke: none; stroke-width: 0; stroke-dasharray: none; stroke-linecap: butt; stroke-dashoffset: 0; stroke-linejoin: miter; stroke-miterlimit: 4; fill: rgb(63,63,63); fill-rule: nonzero; opacity: 1;" vector-effect="non-scaling-stroke"  transform=" translate(-197.41, -76.55)" d="M 124 122.93 C 127.67 113.47 133.66 100.04 143.19 85.18 C 151.8 71.78 163.29 57.220000000000006 178.56 43.370000000000005 C 204.58 19.78 231.09 7.77 247.98 1.66 C 255.6 12.58 263.21999999999997 23.51 270.83 34.44 C 254.30999999999997 41.58 231.57 53.69 208.82999999999998 74.07 C 193.67999999999998 87.63999999999999 181.96999999999997 101.8 172.94 114.94 C 163.38 128.88 156.85 141.68 152.48 151.43 L 123.99999999999999 122.93 Z" stroke-linecap="round" />
</g>
<g transform="matrix(1 0 0 1 566.41 605.24)"  >
<polygon style="stroke: none; stroke-width: 0; stroke-dasharray: none; stroke-linecap: butt; stroke-dashoffset: 0; stroke-linejoin: miter; stroke-miterlimit: 4; fill: rgb(63,63,63); fill-rule: nonzero; opacity: 1;" vector-effect="non-scaling-stroke"  points="79.4,50.96 50.94,79.44 -34.2,-5.74 -63.94,-35.49 -79.4,-50.96 -50.94,-79.44 -43.48,-71.98 -15,-43.48 79.4,50.96 " />
</g>
<g transform="matrix(1 0 0 1 478 608.15)"  >
<path style="stroke: none; stroke-width: 0; stroke-dasharray: none; stroke-linecap: butt; stroke-dashoffset: 0; stroke-linejoin: miter; stroke-miterlimit: 4; fill: rgb(63,63,63); fill-rule: nonzero; opacity: 1;" vector-effect="non-scaling-stroke"  transform=" translate(-73.42, -212.88)" d="M 146.83 166.49 C 143.16000000000003 175.95000000000002 137.17000000000002 189.38 127.63000000000001 204.23000000000002 C 119.03000000000002 217.64000000000001 107.55000000000001 232.19000000000003 92.27000000000001 246.04000000000002 C 66.25000000000001 269.63 39.74000000000001 281.65000000000003 22.85000000000001 287.76 C 15.230000000000008 276.83 7.610000000000008 265.90999999999997 7.105427357601002e-15 254.98 C 16.520000000000007 247.84 39.25000000000001 235.73 62.00000000000001 215.35 C 77.14000000000001 201.78 88.86000000000001 187.62 97.89000000000001 174.48 C 107.45000000000002 160.54 113.98000000000002 147.73999999999998 118.35000000000002 137.98999999999998 L 146.83 166.48999999999998 Z" stroke-linecap="round" />
</g>
<g transform="matrix(1 0 0 1 537.96 420.71)"  >
<circle style="stroke: none; stroke-width: 0; stroke-dasharray: none; stroke-linecap: butt; stroke-dashoffset: 0; stroke-linejoin: miter; stroke-miterlimit: 4; fill: rgb(63,63,63); fill-rule: nonzero; opacity: 1;" vector-effect="non-scaling-stroke"  cx="0" cy="0" r="24.37" />
</g>
</svg>