<?xml version="1.0" encoding="UTF-8"?>
<svg id="Layer_2" data-name="Layer 2" xmlns="http://www.w3.org/2000/svg" viewBox="0 0 270.83 289.41">
  <defs>
    <style>
      .cls-1 {
        fill: #ff7136;
      }

      .cls-1, .cls-2 {
        stroke-width: 0px;
      }

      .cls-3 {
        opacity: .22;
      }

      .cls-2, .cls-4 {
        fill: #f8f6ee;
      }

      .cls-4 {
        stroke: #f8f6ee;
        stroke-miterlimit: 10;
        stroke-width: .98px;
      }
    </style>
  </defs>
  <g id="Layer_1-2" data-name="Layer 1">
    <g>
      <g>
        <rect class="cls-2" x="88.87" y="-12.74" width="40.26" height="184.38" transform="translate(-24.24 100.39) rotate(-45.02)"/>
        <path class="cls-2" d="M124,122.93c3.67-9.46,9.66-22.89,19.19-37.75,8.61-13.4,20.1-27.96,35.37-41.81C204.58,19.78,231.09,7.77,247.98,1.66c7.62,10.92,15.24,21.85,22.85,32.78-16.52,7.14-39.26,19.25-62,39.63-15.15,13.57-26.86,27.73-35.89,40.87-9.56,13.94-16.09,26.74-20.46,36.49l-28.48-28.5Z"/>
        <polygon class="cls-2" points="241.23 260.93 212.77 289.41 127.63 204.23 97.89 174.48 82.43 159.01 110.89 130.53 118.35 137.99 146.83 166.49 241.23 260.93"/>
        <path class="cls-2" d="M146.83,166.49c-3.67,9.46-9.66,22.89-19.2,37.74-8.6,13.41-20.08,27.96-35.36,41.81-26.02,23.59-52.53,35.61-69.42,41.72-7.62-10.93-15.24-21.85-22.85-32.78,16.52-7.14,39.25-19.25,62-39.63,15.14-13.57,26.86-27.73,35.89-40.87,9.56-13.94,16.09-26.74,20.46-36.49l28.48,28.5Z"/>
        <circle class="cls-2" cx="133.37" cy="25.44" r="24.37"/>
      </g>
      <g>
        <rect class="cls-1" x="-48.68" y="142.34" width="366.58" height="3.12" transform="translate(128.04 340.83) rotate(-135)"/>
        <polygon class="cls-1" points="261.51 277.16 261.51 273.44 264.15 270.8 267.88 270.8 270.51 273.44 270.51 277.16 267.88 279.8 264.15 279.8 261.51 277.16"/>
        <polygon class="cls-1" points=".32 15.97 .32 12.24 2.95 9.61 6.68 9.61 9.31 12.24 9.31 15.97 6.68 18.6 2.95 18.6 .32 15.97"/>
      </g>
    </g>
    <g class="cls-3">
      <g>
        <g>
          <line class="cls-4" x1="25.18" y1="11.94" x2="25.18" y2="277.47"/>
          <line class="cls-4" x1="61.93" y1="11.94" x2="61.93" y2="277.47"/>
          <line class="cls-4" x1="98.67" y1="11.94" x2="98.67" y2="277.47"/>
          <line class="cls-4" x1="135.41" y1="11.94" x2="135.41" y2="277.47"/>
          <line class="cls-4" x1="172.16" y1="11.94" x2="172.16" y2="277.47"/>
          <line class="cls-4" x1="208.9" y1="11.94" x2="208.9" y2="277.47"/>
          <line class="cls-4" x1="245.65" y1="11.94" x2="245.65" y2="277.47"/>
        </g>
        <g>
          <line class="cls-4" x1="2.65" y1="254.94" x2="268.18" y2="254.94"/>
          <line class="cls-4" x1="2.65" y1="218.19" x2="268.18" y2="218.19"/>
          <line class="cls-4" x1="2.65" y1="181.45" x2="268.18" y2="181.45"/>
          <line class="cls-4" x1="2.65" y1="144.7" x2="268.18" y2="144.7"/>
          <line class="cls-4" x1="2.65" y1="107.96" x2="268.18" y2="107.96"/>
          <line class="cls-4" x1="2.65" y1="71.21" x2="268.18" y2="71.21"/>
          <line class="cls-4" x1="2.65" y1="34.47" x2="268.18" y2="34.47"/>
        </g>
      </g>
    </g>
  </g>
</svg>