<?xml version="1.0" encoding="UTF-8"?>
<svg id="Layer_2" data-name="Layer 2" xmlns="http://www.w3.org/2000/svg" viewBox="0 0 872.39 568.39">
  <defs>
    <style>
      .cls-1 {
        fill: #ff7136;
      }

      .cls-1, .cls-2 {
        stroke-width: 0px;
      }

      .cls-3 {
        opacity: .22;
      }

      .cls-4 {
        stroke: #f8f6ee;
        stroke-miterlimit: 10;
        stroke-width: 1.7px;
      }

      .cls-4, .cls-2 {
        fill: #f8f6ee;
      }
    </style>
  </defs>
  <g id="Layer_1-2" data-name="Layer 1">
    <g>
      <path class="cls-2" d="M516.72,184.28v151.05h-38.09v-55.5c-11.22-10.61-26.14-22.49-45.16-32.92-11.29-6.19-22.35-10.95-32.8-14.62v103.04h-38.09v-149.64c11.95.4,30.23,2.06,51.43,8.42,11.83,3.56,24.56,8.56,37.6,15.61,10.21,5.52,19.19,11.52,27.02,17.58v-43.02h38.09Z"/>
      <path class="cls-2" d="M247.68,219.79v18.45h.7c4.75-.98,9.67-1.81,14.78-2.47,33.43-4.27,60.9.84,77.56,5.31-.01,12.79-.01,25.57-.02,38.36-16.93-3.46-41.48-6.42-70.58-2.87-7.88.96-15.37,2.3-22.44,3.93v20.3h93.04v34.5h-131.13v-107.9c-11.69,6.67-24.62,15.47-37.55,27.06-14.54,13.03-25.78,26.62-34.45,39.24l14.84,14.85-27.32,27.34-7.16-7.17-27.34-27.35L0,210.71l27.32-27.34,81.72,81.77c8.26-12.87,19.29-26.84,33.94-40.14,24.98-22.64,50.43-34.18,66.64-40.03.06.08.11.16.17.24h130.96v34.58h-93.07Z"/>
      <path class="cls-2" d="M687.24,184.28v85.61c0,9.81-1.69,18.9-5.03,27-3.38,8.18-8.35,15.29-14.79,21.14-6.39,5.81-14.29,10.35-23.47,13.49-9.06,3.09-19.5,4.66-30.99,4.66s-21.92-1.56-30.98-4.66c-9.19-3.14-17.09-7.68-23.48-13.49-6.43-5.86-11.41-12.96-14.78-21.14-3.34-8.1-5.04-17.18-5.04-27v-85.61h38.1v82.19c0,5.78.79,10.94,2.33,15.35,1.49,4.23,3.71,7.84,6.62,10.72,2.92,2.9,6.62,5.14,11.01,6.65,4.56,1.58,10.02,2.39,16.22,2.39s11.6-.81,16.19-2.39c4.41-1.52,8.12-3.76,11.04-6.65,2.91-2.88,5.14-6.49,6.62-10.72,1.56-4.41,2.34-9.57,2.34-15.35v-82.19h38.09Z"/>
      <path class="cls-2" d="M872.39,280.76c0,4.83-.63,9.41-1.88,13.71-.49,1.39-.97,2.79-1.46,4.18-.36.9-.75,1.79-1.19,2.67-.5,1.04-1.05,2.05-1.64,3.05-4.04,6.82-9.84,12.64-17.25,17.28-7.21,4.52-15.96,8-26.02,10.3-9.89,2.28-21.02,3.43-33.08,3.43-7.92,0-15.79-.5-23.37-1.5-7.57-.99-14.94-2.42-21.89-4.26-6.97-1.84-13.69-4.07-19.98-6.63-6.32-2.57-12.25-5.44-17.64-8.52l-4.34-2.5,20.08-30.53,3.83,2.17c4.84,2.74,9.82,5.24,14.8,7.42,4.92,2.17,10.1,4.02,15.39,5.51,5.29,1.49,10.94,2.65,16.78,3.44,5.84.79,12.17,1.2,18.82,1.2,7.97,0,14.8-.53,20.3-1.55,5.34-1,9.69-2.36,12.94-4.05,2.91-1.52,5-3.26,6.22-5.18,1.09-1.71,1.68-3.53,1.77-5.51-9-3.37-19.03-6.44-30.02-8.82-3.09-.67-6.14-1.25-9.16-1.77-6.39-1.09-12.59-1.86-18.55-2.35-9.43-.77-18.28-.88-26.42-.55-4.49.18-8.76.49-12.79.89-3.27-1.44-6.32-3.18-9.11-5.21-4.59-3.32-8.34-7.48-11.2-12.35-.22-.37-.42-.74-.63-1.12-2.95-5.44-4.45-11.8-4.45-18.92,0-4.17.57-8.36,1.71-12.46,1.16-4.17,3.02-8.2,5.57-11.99,2.51-3.76,5.78-7.28,9.72-10.47,3.92-3.18,8.68-5.95,14.17-8.23,5.37-2.23,11.63-4.01,18.61-5.27,6.92-1.24,14.88-1.88,23.64-1.88,6.31,0,12.74.36,19.12,1.05,6.36.69,12.64,1.68,18.67,2.94,6.04,1.26,11.94,2.81,17.53,4.58,5.6,1.78,10.92,3.79,15.77,5.97l4.63,2.08-16.76,30.85-3.97-1.74c-3.71-1.63-7.77-3.16-12.07-4.55-4.31-1.39-8.88-2.61-13.58-3.63-4.72-1.03-9.65-1.85-14.68-2.44-5-.59-10.16-.89-15.36-.89-7.32,0-13.36.53-17.98,1.56-4.46,1-8,2.26-10.5,3.74-2.17,1.28-3.64,2.62-4.37,3.98-.78,1.46-1.16,2.83-1.16,4.17,0,.27,0,.55.04.81,16.77-1.7,37.38-1.65,60.24,3.16,1.71.36,3.4.73,5.06,1.14,9.44,2.24,18.09,5.04,25.94,8.11,2.29.89,4.51,1.8,6.66,2.73,6.36,2.76,12.11,5.65,17.24,8.5,1.38,1.94,2.57,4.01,3.57,6.21,2.45,5.39,3.68,11.45,3.68,18.05Z"/>
      <circle class="cls-2" cx="99.61" cy="207.79" r="23.39"/>
    </g>
    <g class="cls-3">
      <g>
        <g>
          <line class="cls-4" x1="244.76" y1="53.63" x2="244.76" y2="514.76"/>
          <line class="cls-4" x1="308.57" y1="53.63" x2="308.57" y2="514.76"/>
          <line class="cls-4" x1="372.38" y1="53.63" x2="372.38" y2="514.76"/>
          <line class="cls-4" x1="436.19" y1="53.63" x2="436.19" y2="514.76"/>
          <line class="cls-4" x1="500" y1="53.63" x2="500" y2="514.76"/>
          <line class="cls-4" x1="563.82" y1="53.63" x2="563.82" y2="514.76"/>
          <line class="cls-4" x1="627.63" y1="53.63" x2="627.63" y2="514.76"/>
        </g>
        <g>
          <line class="cls-4" x1="205.63" y1="475.63" x2="666.76" y2="475.63"/>
          <line class="cls-4" x1="205.63" y1="411.82" x2="666.76" y2="411.82"/>
          <line class="cls-4" x1="205.63" y1="348" x2="666.76" y2="348"/>
          <line class="cls-4" x1="205.63" y1="284.19" x2="666.76" y2="284.19"/>
          <line class="cls-4" x1="205.63" y1="220.38" x2="666.76" y2="220.38"/>
          <line class="cls-4" x1="205.63" y1="156.57" x2="666.76" y2="156.57"/>
          <line class="cls-4" x1="205.63" y1="92.76" x2="666.76" y2="92.76"/>
        </g>
      </g>
    </g>
    <g>
      <rect class="cls-1" x="160.86" y="280.14" width="550.66" height="4.68" transform="translate(153.71 718.67) rotate(-90)"/>
      <polygon class="cls-1" points="429.44 558.83 433.39 554.87 438.99 554.87 442.95 558.83 442.95 564.43 438.99 568.39 433.39 568.39 429.44 564.43 429.44 558.83"/>
      <polygon class="cls-1" points="429.44 3.96 433.39 0 438.99 0 442.95 3.96 442.95 9.55 438.99 13.51 433.39 13.51 429.44 9.55 429.44 3.96"/>
    </g>
    <g>
      <path class="cls-1" d="M210.67,383.47c1.65.93,3.33,1.78,5.04,2.53,1.7.75,3.47,1.38,5.3,1.9,1.83.52,3.75.91,5.77,1.18,2.01.27,4.16.41,6.44.41,2.74,0,5.08-.18,7.01-.54,1.93-.36,3.5-.86,4.71-1.49,1.22-.63,2.1-1.39,2.66-2.26.55-.88.83-1.83.83-2.86,0-1.65-.69-2.96-2.07-3.93-1.38-.96-3.51-1.45-6.39-1.45-1.26,0-2.6.08-4,.25-1.4.17-2.82.35-4.25.54s-2.84.37-4.23.54-2.7.25-3.93.25c-2.04,0-4-.26-5.88-.79-1.88-.53-3.54-1.31-4.99-2.36-1.45-1.05-2.6-2.36-3.46-3.94-.86-1.58-1.28-3.42-1.28-5.52,0-1.24.17-2.48.51-3.71.34-1.23.89-2.4,1.63-3.52.75-1.12,1.72-2.16,2.9-3.12,1.19-.96,2.62-1.8,4.31-2.5,1.68-.7,3.63-1.25,5.84-1.65,2.21-.4,4.72-.6,7.55-.6,2.04,0,4.1.11,6.16.34,2.06.22,4.07.54,6.03.95,1.96.41,3.84.9,5.65,1.47s3.49,1.21,5.05,1.91l-4.06,7.47c-1.28-.56-2.67-1.08-4.15-1.56-1.48-.48-3.03-.89-4.64-1.24-1.62-.35-3.28-.63-5.01-.83-1.72-.2-3.48-.31-5.27-.31-2.55,0-4.65.19-6.29.55-1.64.37-2.95.84-3.93,1.42-.97.57-1.65,1.22-2.03,1.93-.38.71-.57,1.42-.57,2.12,0,1.36.61,2.48,1.84,3.34,1.23.87,3.09,1.3,5.61,1.3,1.01,0,2.17-.07,3.49-.22,1.31-.15,2.7-.31,4.15-.48s2.93-.34,4.44-.48c1.51-.15,2.97-.22,4.39-.22,2.69,0,5.06.3,7.14.9,2.07.6,3.81,1.46,5.21,2.58,1.4,1.12,2.46,2.47,3.18,4.06.72,1.59,1.08,3.36,1.08,5.33,0,2.63-.61,4.97-1.82,7.02-1.22,2.05-2.95,3.79-5.2,5.2-2.25,1.41-4.96,2.48-8.13,3.21-3.17.73-6.7,1.09-10.6,1.09-2.57,0-5.08-.16-7.53-.48-2.45-.32-4.8-.78-7.05-1.37-2.25-.59-4.39-1.3-6.42-2.13-2.03-.83-3.92-1.74-5.65-2.73l4.93-7.5Z"/>
      <path class="cls-1" d="M274.16,411.12h-8.64v-48.52h8.64v3.24c.76-.53,1.65-1.02,2.69-1.49,1.03-.47,2.14-.88,3.33-1.23s2.41-.63,3.68-.83c1.26-.2,2.53-.31,3.79-.31,2.92,0,5.6.43,8.04,1.28,2.44.86,4.54,2.06,6.29,3.62,1.75,1.56,3.12,3.42,4.1,5.59.98,2.17,1.47,4.57,1.47,7.2s-.52,5.22-1.55,7.43-2.46,4.1-4.28,5.66c-1.82,1.57-3.98,2.77-6.48,3.62-2.5.85-5.21,1.27-8.13,1.27-1.25,0-2.48-.08-3.69-.23s-2.38-.37-3.5-.64c-1.12-.27-2.17-.6-3.15-.98-.98-.38-1.85-.79-2.61-1.24v16.55ZM274.16,386.22c.88.7,1.8,1.29,2.77,1.78.97.49,1.97.89,2.98,1.2,1.01.31,2.03.54,3.07.69,1.03.15,2.03.22,3.01.22,1.99,0,3.75-.27,5.3-.8,1.55-.53,2.85-1.27,3.91-2.2,1.06-.93,1.87-2.03,2.44-3.3.56-1.26.85-2.64.85-4.12,0-1.38-.28-2.69-.83-3.91-.56-1.23-1.35-2.3-2.39-3.23-1.04-.92-2.3-1.65-3.77-2.19-1.47-.53-3.12-.8-4.95-.8-1.17,0-2.34.11-3.5.34-1.17.22-2.29.54-3.37.95-1.08.41-2.09.9-3.04,1.49-.94.58-1.77,1.24-2.47,1.96v11.94Z"/>
      <path class="cls-1" d="M312.13,379.82c0-2.47.5-4.79,1.5-6.95,1-2.16,2.43-4.05,4.29-5.66,1.86-1.62,4.11-2.89,6.74-3.82,2.64-.93,5.6-1.4,8.89-1.4s6.25.47,8.89,1.4c2.64.93,4.88,2.21,6.74,3.82,1.86,1.62,3.29,3.5,4.29,5.66,1,2.16,1.5,4.48,1.5,6.95s-.5,4.79-1.5,6.95c-1,2.16-2.43,4.05-4.29,5.66-1.86,1.62-4.11,2.89-6.74,3.82-2.64.93-5.6,1.4-8.89,1.4s-6.25-.47-8.89-1.4c-2.64-.93-4.89-2.21-6.74-3.82-1.86-1.62-3.29-3.5-4.29-5.66-1-2.16-1.5-4.48-1.5-6.95ZM321.21,379.82c0,1.38.28,2.69.83,3.93.55,1.24,1.36,2.33,2.42,3.27,1.06.94,2.35,1.69,3.88,2.25,1.53.55,3.26.83,5.21.83s3.68-.28,5.21-.83c1.53-.55,2.82-1.3,3.88-2.25,1.06-.94,1.87-2.03,2.42-3.27.55-1.24.83-2.54.83-3.93s-.28-2.69-.83-3.94c-.56-1.25-1.36-2.34-2.42-3.28-1.06-.94-2.35-1.69-3.88-2.25s-3.26-.83-5.21-.83-3.68.28-5.21.83c-1.53.55-2.82,1.3-3.88,2.25-1.06.94-1.87,2.04-2.42,3.28-.56,1.25-.83,2.56-.83,3.94Z"/>
      <path class="cls-1" d="M362.22,362.6h8.64v4.96c1.91-1.42,3.92-2.65,6.04-3.68,2.12-1.03,4.23-1.82,6.34-2.36l2.54,7.91c-3.33.33-6.25,1.08-8.77,2.23-2.52,1.16-4.57,2.79-6.15,4.89v20.49h-8.64v-34.45Z"/>
      <path class="cls-1" d="M395.91,369.08h-8.32v-6.48h8.32v-10.71h8.64v10.71h8.32v6.48h-8.32v27.97h-8.64v-27.97Z"/>
      <path class="cls-1" d="M420.42,386.48c2.34,1.4,4.9,2.43,7.71,3.09s5.67.99,8.61.99c1.99,0,3.64-.14,4.96-.41,1.32-.27,2.38-.62,3.18-1.05.8-.43,1.36-.91,1.69-1.46.33-.54.5-1.1.5-1.66,0-.82-.35-1.52-1.07-2.1-.71-.58-1.88-.88-3.52-.88-.76,0-1.58.05-2.45.15-.88.1-1.8.2-2.76.31-.96.11-1.97.21-3.01.31-1.04.1-2.1.15-3.17.15-2.33,0-4.33-.25-5.97-.76-1.64-.51-2.98-1.2-4.01-2.07-1.03-.88-1.78-1.91-2.25-3.11-.47-1.2-.7-2.49-.7-3.87,0-1.75.41-3.37,1.23-4.85.82-1.48,1.99-2.76,3.5-3.84,1.52-1.08,3.35-1.92,5.5-2.53,2.15-.6,4.55-.9,7.2-.9,1.38,0,2.83.08,4.33.25,1.51.17,2.99.38,4.45.66,1.46.27,2.86.59,4.2.95,1.34.36,2.53.74,3.56,1.15l-2.71,6.71c-2.2-.82-4.39-1.46-6.58-1.94-2.19-.48-4.44-.71-6.76-.71-1.62,0-2.98.12-4.1.36-1.12.24-2.03.56-2.73.96-.7.4-1.21.86-1.53,1.37-.32.52-.48,1.06-.48,1.62,0,.41.08.78.25,1.11.16.33.44.62.82.86s.88.43,1.49.55c.61.13,1.37.19,2.26.19.82,0,1.68-.05,2.6-.15.92-.1,1.87-.2,2.86-.31.99-.11,2.02-.21,3.08-.31,1.06-.1,2.15-.15,3.26-.15,2.06,0,3.87.24,5.41.73,1.55.49,2.83,1.17,3.84,2.04,1.01.88,1.77,1.91,2.28,3.09.51,1.19.76,2.48.76,3.88,0,1.81-.42,3.49-1.26,5.05-.84,1.56-2.08,2.9-3.74,4.04s-3.71,2.03-6.17,2.67c-2.46.64-5.31.96-8.54.96-1.99,0-3.9-.12-5.75-.37-1.85-.24-3.61-.57-5.28-.99-1.67-.42-3.25-.91-4.71-1.47-1.47-.56-2.81-1.17-4.01-1.81l3.74-6.54Z"/>
      <path class="cls-1" d="M497.42,351.42h9.81l22.07,45.63h-9.72l-3.65-7.68h-26.65l-3.53,7.68h-9.75l21.43-45.63ZM512.28,381.75l-9.87-20.73-9.6,20.73h19.47Z"/>
      <path class="cls-1" d="M533.81,362.6h8.64v4.96c1.91-1.42,3.92-2.65,6.04-3.68,2.12-1.03,4.23-1.82,6.34-2.36l2.54,7.91c-3.33.33-6.25,1.08-8.77,2.23-2.52,1.16-4.57,2.79-6.15,4.89v20.49h-8.64v-34.45Z"/>
      <path class="cls-1" d="M560.67,379.71c0-2.34.48-4.57,1.43-6.7.95-2.13,2.33-4.01,4.12-5.65,1.79-1.63,3.98-2.94,6.58-3.91,2.6-.97,5.55-1.46,8.86-1.46s6.25.49,8.89,1.47c2.64.98,4.88,2.33,6.71,4.04,1.84,1.71,3.25,3.73,4.23,6.04.98,2.32,1.47,4.8,1.47,7.44,0,.33,0,.69-.01,1.07-.01.38-.03.73-.07,1.04h-32.58c.37,1.03.97,1.98,1.8,2.83.83.86,1.86,1.6,3.11,2.22,1.25.62,2.69,1.1,4.32,1.45,1.63.34,3.44.51,5.43.51s3.96-.21,5.93-.63c1.97-.42,3.84-.95,5.63-1.59l2.92,6.6c-1.13.53-2.27.99-3.43,1.39-1.16.4-2.36.73-3.62.99-1.25.26-2.57.46-3.94.6-1.37.14-2.82.2-4.34.2-3.87,0-7.27-.47-10.19-1.4-2.92-.93-5.36-2.21-7.33-3.82-1.97-1.62-3.45-3.51-4.44-5.69-.99-2.18-1.49-4.52-1.49-7.04ZM593.8,376.35c-.31-.95-.79-1.84-1.45-2.67-.65-.83-1.46-1.55-2.44-2.16-.97-.61-2.1-1.09-3.39-1.45-1.28-.35-2.7-.53-4.23-.53-1.63,0-3.12.19-4.47.55-1.34.37-2.52.87-3.53,1.49-1.01.62-1.85,1.34-2.52,2.16-.67.82-1.16,1.68-1.47,2.6h23.5Z"/>
      <path class="cls-1" d="M610.75,362.6h8.64v2.92c2.3-1.3,4.49-2.22,6.58-2.74,2.09-.53,4.14-.79,6.14-.79,2.63,0,5.06.38,7.3,1.15,2.24.77,4.17,1.91,5.81,3.43,1.63,1.52,2.91,3.41,3.84,5.68.92,2.27,1.39,4.89,1.39,7.87v16.93h-8.61v-15.53c0-1.89-.27-3.58-.8-5.06s-1.3-2.74-2.31-3.77-2.22-1.8-3.65-2.34c-1.43-.53-3.03-.8-4.8-.8-.93,0-1.89.1-2.88.29-.98.19-1.95.47-2.89.83-.94.36-1.85.81-2.73,1.34-.88.54-1.67,1.14-2.39,1.82v23.21h-8.64v-34.45Z"/>
      <path class="cls-1" d="M657.92,386.19c0-1.65.36-3.16,1.08-4.52.72-1.36,1.8-2.53,3.24-3.52,1.44-.98,3.24-1.74,5.39-2.28,2.15-.53,4.66-.8,7.52-.8,2.12,0,4.35.16,6.7.47s4.76.79,7.25,1.43c-.1-1.09-.43-2.1-.99-3.02-.56-.92-1.35-1.72-2.35-2.39s-2.21-1.19-3.62-1.56c-1.41-.37-3.01-.55-4.8-.55-.97,0-2.04.06-3.21.18-1.17.12-2.38.29-3.62.53s-2.48.53-3.69.88c-1.22.35-2.35.77-3.4,1.26l-2.63-7.09c1.3-.47,2.7-.9,4.19-1.28,1.49-.39,3.01-.72,4.57-1.01,1.56-.28,3.11-.5,4.67-.66,1.56-.16,3.07-.23,4.52-.23,6.44,0,11.23,1.64,14.36,4.93,3.13,3.29,4.7,8.33,4.7,15.12v15h-8.64v-3.24c-.9.53-1.87,1.02-2.93,1.49-1.06.47-2.21.88-3.46,1.23s-2.58.63-4.01.83c-1.43.2-2.94.31-4.54.31-2.69,0-5.05-.29-7.08-.88-2.03-.58-3.73-1.39-5.09-2.42-1.36-1.03-2.39-2.24-3.08-3.63-.69-1.39-1.04-2.9-1.04-4.54ZM667.03,385.9c0,.56.15,1.1.44,1.62.29.52.76.97,1.4,1.37s1.46.72,2.47.96c1,.24,2.21.37,3.63.37,1.52,0,2.99-.14,4.41-.41,1.42-.27,2.74-.63,3.97-1.08,1.23-.45,2.34-.96,3.33-1.55.99-.58,1.82-1.19,2.48-1.81v-1.52c-1.32-.37-2.63-.68-3.93-.93-1.3-.25-2.53-.45-3.71-.6-1.18-.15-2.29-.25-3.33-.31-1.04-.06-1.95-.09-2.73-.09-1.62,0-2.96.11-4.03.32-1.07.21-1.94.5-2.6.86-.66.36-1.13.78-1.4,1.27-.27.49-.41.99-.41,1.52Z"/>
    </g>
  </g>
</svg>